<svg xmlns="http://www.w3.org/2000/svg" width="226" height="226" viewBox="0 0 226 226" fill="none">
  <circle cx="113.305" cy="113.305" r="112.315" fill="#BABFD4"/>
  <ellipse cx="113.305" cy="119.217" rx="112.315" ry="106.404" fill="url(#paint0_linear_0_1681)"/>
  <path d="M83.9851 112.344L96.1172 95.2853C91.0744 94.4448 81.8143 94.2584 74.2291 101.844C62.2723 113.8 57.43 139.63 56.4205 145.882L86.8087 176.271C92.2791 175.802 116.5 172.568 139.838 149.23C140.086 148.726 145.771 144.525 141.123 139.877C138.904 137.659 135.232 137.7 132.966 139.967C131.812 141.121 130.017 141.138 128.887 140.008C127.757 138.878 127.774 137.083 128.928 135.929L137.175 127.682C141.366 123.491 137.415 116.421 131.566 118.12L124.814 123.9C123.581 124.974 121.749 124.788 120.735 123.617C119.688 122.404 119.912 120.568 121.104 119.535C144.688 98.8426 141.245 101.335 156.418 87.1128C162.087 82.3927 154.956 74.0436 149.369 78.8239L112.663 111.832C111.596 112.741 109.959 112.758 108.908 111.79C107.696 110.743 107.668 109.234 108.46 108.042L134.064 68.2393C137.806 63.171 130.44 57.5421 126.499 62.6515L88.6428 115.596C87.7299 116.916 85.8902 117.219 84.6363 116.295C83.3787 115.451 83.0345 113.619 83.9851 112.344Z" fill="#3B4262"/>
  <defs>
    <linearGradient id="paint0_linear_0_1681" x1="223.759" y1="225.621" x2="223.759" y2="16.3401" gradientUnits="userSpaceOnUse">
      <stop stop-color="#F3F3F3"/>
      <stop offset="1" stop-color="#DADADA"/>
    </linearGradient>
  </defs>
</svg>